# xmcd CD database file
#
# Track frame offsets:
#	150
#	16332
#	31465
#	44277
#	59612
#	75340
#	90980
#	105537
#	120250
#	142482
#	158100
#	173680
#	187047
#	202707
#	218237
#	230587
#	243570
#	258142
#	272965
#	287955
#
# Disc length: 4022 seconds
#
# Revision: 2
# Processed by: cddbd v1.5.1PL2 Copyright (c) Steve Scherf et al.
# Submitted via: CDex 1.51
#
DISCID=170fb414
DTITLE=Glenn Miller and son orchestre - Les Originaux
DYEAR=1993
DGENRE=Jazz
TTITLE0=In the Mood
TTITLE1=Moonlight Serenade
TTITLE2=Little Brown Jug
TTITLE3=Stardust
TTITLE4=King Porter Stomp
TTITLE5=Tuxedo Junction
TTITLE6=My Blue Heaven
TTITLE7=Pavanne
TTITLE8=Anvil Chorus
TTITLE9=Frenesi
TTITLE10=Song of Volga Boatmen
TTITLE11=Sun Valley Jump
TTITLE12=Chattanooga Choo Choo
TTITLE13=Take the "A" Train
TTITLE14=On a Little Street in Singapore
TTITLE15=Adios
TTITLE16=A String of Pearls
TTITLE17=American Patrol
TTITLE18=Kalamazoo
TTITLE19=Rhapsody in Blue
EXTD=\n YEAR: 1993
EXTT0=
EXTT1=
EXTT2=
EXTT3=
EXTT4=
EXTT5=
EXTT6=
EXTT7=
EXTT8=
EXTT9=
EXTT10=
EXTT11=
EXTT12=
EXTT13=
EXTT14=
EXTT15=
EXTT16=
EXTT17=
EXTT18=
EXTT19=
PLAYORDER=
